HIERARCHY
ROOT pelvis
{
  OFFSET 0 100 0
  CHANNELS 6 Xposition Yposition Zposition Zrotation Xrotation Yrotation
  JOINT pelvis_right_femur
  {
    OFFSET -10.78128 -3.44521 -0.5502486
    CHANNELS 3 Zrotation Xrotation Yrotation
    JOINT right_femur_tibia
    {
      OFFSET -0.8047443 -44.0398 -0.1307829
      CHANNELS 3 Zrotation Xrotation Yrotation
      JOINT right_tibia_foot
      {
        OFFSET 3.006224 -47.83518 -5
        CHANNELS 3 Zrotation Xrotation Yrotation
        End Site
        {
          OFFSET 0 -5 15
        }
      }
    }
  }
  JOINT pelvis_left_femur
  {
    OFFSET 10.78128 -3.44521 -0.5502486
    CHANNELS 3 Zrotation Xrotation Yrotation
    JOINT left_femur_tibia
    {
      OFFSET 0.8047443 -44.0398 -0.1307829
      CHANNELS 3 Zrotation Xrotation Yrotation
      JOINT left_tibia_foot
      {
        OFFSET -4.370144 -48.10324 -4.275266
        CHANNELS 3 Zrotation Xrotation Yrotation
        End Site
        {
          OFFSET 0 -5 15
        }
      }
    }
  }
  JOINT pelvis_spine1
  {
    OFFSET 0 6.468898 -3.129235
    CHANNELS 3 Zrotation Xrotation Yrotation
    JOINT spine1
    {
      OFFSET 0 23.15396 4.99043
      CHANNELS 3 Zrotation Xrotation Yrotation
      JOINT spine2
      {
        OFFSET 0 20.79997 -5.064912
        CHANNELS 3 Zrotation Xrotation Yrotation
        JOINT neck
        {
          OFFSET 0 14.38658 9.616178
          CHANNELS 3 Zrotation Xrotation Yrotation
          End Site
          {
            OFFSET 0 20 0
          }
        }
      }
      JOINT right_manubrium
      {
        OFFSET -5.722621 16.35077 3.967754
        CHANNELS 3 Zrotation Xrotation Yrotation
        JOINT right_clavicle
        {
          OFFSET -13.16364 1.694482 -4.693211
          CHANNELS 3 Zrotation Xrotation Yrotation
          JOINT right_humerus
          {
            OFFSET -28.5034 -0.3100689 -2.792744
            CHANNELS 3 Zrotation Xrotation Yrotation
            JOINT right_radius
            {
              OFFSET -25.15693 0.02248979 -1.271978
              CHANNELS 3 Zrotation Xrotation Yrotation
              End Site
              {
                OFFSET -15 0 0
              }
            }
          }
        }
      }
      JOINT left_manubrium
      {
        OFFSET 5.722621 16.35077 3.967754
        CHANNELS 3 Zrotation Xrotation Yrotation
        JOINT left_clavicle
        {
          OFFSET 13.16364 1.694482 -4.693211
          CHANNELS 3 Zrotation Xrotation Yrotation
          JOINT left_humerus
          {
            OFFSET 29.39168 -1.063119 -2.237045
            CHANNELS 3 Zrotation Xrotation Yrotation
            JOINT left_radius
            {
              OFFSET 24.59957 -0.9528479 0.9047498
              CHANNELS 3 Zrotation Xrotation Yrotation
              End Site
              {
                OFFSET 15 -0 -0
              }
            }
          }
        }
      }
    }
  }
}
MOTION
Frames: 19
Frame Time: 0.0416666666667
0 103.5113 0 2.174161 -1.201051 0.2905833 1.267066 -10.08362 8.75662 -0 34.77695 -0 -5.272748 -17.99107 -2.439944 -8.029455 10.08915 -23.51434 -0 5.131911 -0 7.683756 -16.1532 26.58713 -4.326297 -5.050967 4.939218 1.999595 9.223397 -7.753122 0.8350257 22.81952 7.183106 3.253302 -23.10253 8.821772 6.3749 -19.76919 11.57628 86.31389 35.94757 -19.78025 -0 0 16.27489 -7.581613 8.243566 4.623082 5.4792 -19.49391 -1.687267 -94.77602 29.74013 22.94792 0 0 -15.98009 3.515192 17.87646 9.554156
0.3265736 103.4541 1.354632 2.017687 -1.072209 0.4786243 1.557973 -11.10017 8.649434 -0 34.5778 -0 -5.304415 -17.59189 -2.497269 -7.87873 10.21769 -23.39531 -0 5.165247 -0 7.540145 -16.44318 26.41383 -4.255408 -4.852316 4.877366 2.079607 9.208619 -7.783882 0.8467888 22.70555 7.218542 3.280694 -23.24241 8.863097 6.360172 -19.71871 11.58217 86.30418 35.93093 -19.83019 -0 0 16.17858 -7.62727 8.279035 4.647587 5.558969 -19.55039 -1.674797 -94.66521 29.6789 22.7896 0 0 -16.32456 3.61772 17.74343 9.499998
0.681924 103.3204 2.85076 1.827113 -0.7954296 0.5272315 1.886707 -12.6132 8.306076 -0 32.71781 -0 -5.280378 -16.75139 -2.179578 -7.712735 10.38359 -23.14455 -0 5.240747 -0 7.286419 -16.93642 26.08331 -4.229175 -4.562679 4.871508 2.282941 9.168609 -7.792664 0.8734533 22.45433 7.259835 3.338445 -23.46318 8.895431 6.316634 -19.57718 11.5984 86.30087 35.9127 -19.99481 -0 0 15.91416 -7.687856 8.339729 4.657331 5.796581 -19.61695 -1.670567 -94.49703 29.57653 22.40001 0 0 -17.10023 3.807406 17.56687 9.347519
1.093475 103.0371 4.576491 1.665647 -0.3500344 0.4480268 2.147719 -14.44683 7.685984 -0 28.71886 -0 -5.180576 -15.37544 -1.42289 -7.634815 10.59596 -22.72722 -0 5.431636 -0 6.918227 -17.63835 25.55864 -4.289636 -4.225266 4.971737 2.58415 9.103206 -7.721896 0.9518905 22.07502 7.279339 3.439268 -23.74418 8.918438 6.216773 -19.28842 11.62885 86.33741 35.88986 -20.32035 -0 0 15.44872 -7.764668 8.428739 4.649107 6.201191 -19.75202 -1.672963 -94.23301 29.45988 21.71838 0 0 -18.34087 4.050394 17.35419 9.068818
1.577656 102.5455 6.587601 1.61512 0.2054515 0.3365671 2.21858 -16.30229 6.849643 -0 22.8848 -0 -5.030422 -13.55667 -0.3687279 -7.711759 10.88875 -22.14446 -0 5.839213 -0 6.424172 -18.4575 24.79814 -4.425517 -3.93076 5.163338 2.875687 9.033524 -7.54875 1.071598 21.68892 7.2723 3.565805 -24.01466 8.934474 6.039894 -18.88784 11.63122 86.44547 35.85857 -20.76503 -0 0 14.83818 -7.862447 8.545834 4.642075 6.712009 -20.00203 -1.631848 -93.84797 29.35203 20.81095 0 0 -19.83851 4.280188 17.10235 8.719089
2.133464 101.8539 8.937962 1.690898 0.8236059 0.2803911 2.074447 -17.89702 5.867941 -0 15.92588 -0 -4.891871 -11.57094 0.8119084 -7.923025 11.30298 -21.38987 -0 6.557984 -0 5.760485 -19.25799 23.75699 -4.581233 -3.745997 5.337146 3.071807 8.969764 -7.360909 1.165185 21.41038 7.271838 3.683213 -24.19817 8.933136 5.796277 -18.47314 11.54727 86.64835 35.82466 -21.24925 -0 0 14.14792 -7.978908 8.694135 4.657396 7.232984 -20.32923 -1.535602 -93.3631 29.24681 19.82244 0 0 -21.28356 4.448766 16.80676 8.406156
2.729511 101.0318 11.7089 1.789073 1.475609 0.3810535 1.877149 -18.989 4.859929 -0 8.982959 -0 -4.854162 -9.812883 1.967206 -8.158666 11.84311 -20.45899 -0 7.730779 -0 4.862365 -19.8934 22.41956 -4.655049 -3.664043 5.366344 3.167941 8.905847 -7.289272 1.175197 21.25009 7.31334 3.765417 -24.26486 8.904373 5.540181 -18.06114 11.37555 86.9957 35.79522 -21.7704 -0 0 13.38497 -8.102203 8.883842 4.701918 7.629615 -20.67606 -1.457733 -92.82454 29.13342 18.89039 0 0 -22.39231 4.531715 16.4696 8.227793
3.319259 100.1682 14.97878 1.772262 2.079139 0.7696447 1.827107 -19.30019 4.033286 -0 3.423186 -0 -5.009165 -8.587163 2.961258 -8.232104 12.42639 -19.39405 -0 9.636239 -0 3.641302 -20.1199 20.77147 -4.508107 -3.674469 5.229002 3.207422 8.841191 -7.370856 1.096803 21.17042 7.39772 3.800156 -24.23797 8.851504 5.341599 -17.58701 11.16079 87.52851 35.76809 -22.38683 -0 0 12.52969 -8.231903 9.125378 4.777956 7.7585 -21.0035 -1.448636 -92.30753 29.00818 18.14157 0 0 -22.94866 4.511799 16.09679 8.242564
3.896698 99.46141 18.83799 1.557485 2.646722 1.495923 1.966912 -18.53129 3.499274 -0 0.2579611 -0 -5.421746 -7.942045 3.615109 -8.009298 12.90721 -18.19976 -0 12.58478 -0 2.007869 -19.53127 18.80495 -4.058229 -3.825623 4.913151 3.234711 8.738172 -7.638169 0.9597194 21.11554 7.494522 3.793546 -24.17212 8.76532 5.225643 -17.12861 10.95826 88.12672 35.75525 -23.00359 -0 0 11.63082 -8.41109 9.416679 4.905987 7.540821 -21.16399 -1.562689 -91.94871 28.85306 17.75505 0 0 -22.83902 4.373404 15.68385 8.460062
4.455059 99.09542 23.27309 1.128833 3.167631 2.442941 2.238817 -16.49001 3.276929 0 -0.3730923 0 -6.086206 -7.712727 3.874377 -7.467821 13.01457 -16.97285 -0 16.92705 -0 -0.01870175 -17.65799 16.60132 -3.282503 -4.137412 4.492334 3.240255 8.628374 -8.010719 0.7566655 21.05564 7.579216 3.72539 -24.04687 8.612988 5.175991 -16.6804 10.8154 88.76088 35.75849 -23.57734 -0 0 10.72213 -8.659871 9.757209 5.092932 7.009689 -21.08711 -1.793624 -91.83761 28.66364 17.82045 0 0 -22.06186 4.105606 15.22719 8.865169
5.01737 99.19364 28.25449 0.6132104 3.336073 3.289499 2.636228 -13.34778 3.348882 -0 0.4509914 -0 -6.858234 -7.955395 3.910247 -6.880909 12.37525 -15.78462 -0 23.14244 -0 -2.222961 -14.2081 14.35925 -2.26926 -4.496102 4.193308 3.169248 8.62737 -8.272419 0.4798426 21.05649 7.626857 3.580647 -23.75958 8.358296 5.125518 -16.25419 10.77607 89.35063 35.77756 -23.99379 -0 0 9.926672 -9.014487 10.13875 5.369029 6.285125 -20.76415 -2.048135 -92.00685 28.4347 18.33507 0 0 -20.78323 3.720088 14.73696 9.399155
5.590748 99.786 33.61603 0.2639896 2.919558 3.661753 3.004523 -9.181605 3.5521 -0 1.417943 -0 -7.539943 -8.897664 3.933736 -6.545331 10.6037 -14.65933 -0 31.49388 -0 -4.172629 -9.464715 12.40272 -1.295687 -4.7279 4.294808 2.988202 8.81407 -8.182685 0.1466368 21.22006 7.614355 3.376153 -23.2669 7.985454 5.124341 -15.91992 10.93727 89.78892 35.8321 -24.07556 -0 0 9.339556 -9.504994 10.55413 5.754874 5.498269 -20.33212 -2.263293 -92.34871 28.17335 19.12802 0 0 -19.30696 3.258181 14.2467 9.971607
6.178448 100.7887 39.10531 0.3524181 1.883505 3.48571 3.016539 -3.858132 3.656757 -0 1.741187 -0 -7.988574 -10.53621 4.082552 -6.415651 7.208813 -13.55351 -0 41.29109 -0 -5.429075 -4.615878 11.13383 -0.7360162 -4.695665 4.932918 2.709609 9.208913 -7.693762 -0.160236 21.58979 7.500923 3.170332 -22.60008 7.507311 5.245521 -15.74747 11.30268 89.93888 35.9399 -23.70228 -0 0 9.021381 -10.18072 10.99007 6.269714 4.732096 -19.92568 -2.428117 -92.72961 27.88428 20.03661 0 0 -17.88728 2.768122 13.78213 10.50176
6.784418 102.0332 44.47068 0.9739567 0.3868035 3.076427 2.443992 2.46855 3.580153 -0 1.107642 -0 -8.111576 -12.55356 4.413839 -6.30974 2.027412 -12.41378 -0 50.86723 -0 -5.935411 -0.9326552 10.69854 -0.7924731 -4.392497 6.013422 2.350795 9.715338 -6.946066 -0.347326 22.14344 7.250262 3.02251 -21.78934 6.952256 5.437389 -15.86141 11.75047 89.60942 36.10632 -22.74481 -0 0 9.0833 -11.12322 11.4143 6.942512 4.081792 -19.60162 -2.511662 -93.0583 27.55172 20.95179 0 0 -16.73413 2.314429 13.35493 10.90948
7.402399 103.3581 49.57682 2.029076 -1.304456 2.742489 1.321867 9.308968 3.435567 0 -0.4432475 0 -7.859669 -14.54922 4.928135 -6.17917 -4.614964 -11.36136 -0 58.26497 -0 -5.823826 0.9775482 10.91452 -1.401824 -3.934878 7.323332 1.908057 10.19504 -6.085656 -0.3922384 22.82311 6.874989 2.945812 -20.86045 6.359947 5.559178 -16.33881 12.13376 88.71041 36.29969 -21.13345 -0 0 9.635748 -12.39689 11.78758 7.790779 3.679293 -19.36483 -2.440775 -93.27734 27.1644 21.81304 0 0 -15.96658 1.948872 12.96921 11.16033
8.036174 104.6289 54.45326 3.298922 -2.88965 2.527062 -0.1309057 16.12242 3.37243 0 -2.577777 0 -7.255423 -16.29155 5.573342 -6.001679 -12.04784 -10.52181 -0 61.95268 -0 -5.199877 1.294911 11.59148 -2.33928 -3.481157 8.614801 1.375681 10.5658 -5.210349 -0.3503952 23.53539 6.446678 2.904807 -19.8842 5.789113 5.485277 -17.11934 12.36289 87.32359 36.44706 -18.94473 -0 0 10.72134 -14.00788 12.08016 8.8109 3.597757 -19.16269 -2.199703 -93.39224 26.74357 22.64429 0 0 -15.50407 1.654309 12.61735 11.30798
8.728592 105.5905 59.1645 4.463699 -4.050949 2.476101 -1.590824 22.36039 3.41814 0 -4.863025 0 -6.391392 -17.80213 6.248519 -5.488249 -19.30953 -9.562776 -0 61.03221 -0 -4.397409 0.8419796 12.84979 -3.287029 -3.177549 9.606961 0.7934341 10.74856 -4.456195 -0.2919139 24.13586 6.055264 2.854276 -18.96095 5.307933 5.134864 -18.13791 12.41798 85.53073 36.47404 -16.27871 -0 0 12.36645 -15.91904 12.26933 9.995878 3.775517 -18.88056 -1.90167 -93.49452 26.32216 23.51473 0 0 -15.14039 1.356709 12.27952 11.43647
9.502159 105.9174 63.83338 5.136955 -4.679071 2.492961 -2.596966 27.69047 3.482984 0 -6.797832 0 -5.381755 -19.25075 6.869076 -4.333625 -25.56281 -8.13464 -0 55.27637 -0 -3.819593 0.456031 14.73777 -3.893471 -3.114373 10.20363 0.2627367 10.7015 -3.862112 -0.2677008 24.47458 5.767254 2.764886 -18.1563 4.956712 4.536025 -19.28216 12.34842 83.4835 36.32376 -13.30408 -0 0 14.49832 -18.03161 12.34882 11.30131 4.10421 -18.47428 -1.626838 -93.63167 25.91999 24.4129 0 0 -14.71255 1.009252 11.93861 11.62119
10.40285 105.5451 68.52746 5.203359 -4.863404 2.442606 -2.94947 32.04515 3.420409 0 -8.016125 0 -4.309249 -20.73136 7.396553 -2.593064 -30.36077 -6.140022 -0 46.05209 -0 -3.450515 0.4853737 16.98515 -4.037026 -3.217758 10.44366 -0.1572153 10.51559 -3.4373 -0.2955095 24.50217 5.611526 2.637839 -17.5213 4.745897 3.857587 -20.40913 12.22875 81.43364 35.98019 -10.3159 -0 0 16.83715 -20.164 12.32381 12.6024 4.392646 -17.97678 -1.443407 -93.81243 25.55236 25.30608 0 0 -14.06893 0.5959137 11.58435 11.92218
